<svg width="163" height="101" viewBox="0 0 163 101" fill="none" xmlns="http://www.w3.org/2000/svg">
<mask id="mask0_662_13445" style="mask-type:luminance" maskUnits="userSpaceOnUse" x="0" y="0" width="163" height="101">
<path d="M0 0H163V101H0V0Z" fill="white"/>
</mask>
<g mask="url(#mask0_662_13445)">
<path d="M10.9492 18.3637H15.7874C17.9585 34.0637 22.9831 47.77 35.017 62.4114C34.9549 47.2095 33.8385 31.5723 31.2953 18.3637H35.6374V63.1589H30.3027C18.3927 49.0789 15.1052 36.9295 11.5691 21.2294C11.6935 35.7464 12.8717 50.574 15.2914 63.1589H10.9492V18.3637Z" fill="#5B0055"/>
<path d="M57.3469 18.3637H79.6779V22.7253C72.9166 20.3572 68.6365 19.0491 61.6891 18.9865V41.1045C63.5501 34.9986 70.4975 30.9486 77.1967 30.9486V35.3103C69.9392 35.3103 61.6891 37.1789 61.6891 44.4063V62.5364C68.6365 62.4737 72.9166 61.1654 79.6779 58.7981V63.1589H57.3469V18.3637Z" fill="#5B0055"/>
<path d="M101.077 18.3637H105.42V62.5364C110.816 62.3493 114.972 61.0413 121.423 58.7981V63.1589H101.077V18.3637Z" fill="#5B0055"/>
<path d="M137.55 18.3637H142.016C142.388 27.5849 146.668 36.8054 151.693 46.0258C155.477 37.0545 157.772 27.5849 157.772 18.3637H162.238C161.742 28.1452 156.904 37.8641 151.631 47.6459C150.266 50.574 149.15 56.8045 149.15 63.1589H144.808C144.808 57.9259 149.398 51.2595 150.949 47.77H148.157C142.14 38.4872 138.17 28.1452 137.55 18.3637Z" fill="#5B0055"/>
<path d="M51.6615 89.0449V76.898H52.9398V87.9339H59.7121V89.0449H51.6615Z" fill="#5B0055"/>
<path d="M73.7919 88.0031C74.5176 88.0031 75.1885 87.8798 75.8051 87.631C76.421 87.3811 76.9567 87.0296 77.4117 86.5712C77.8664 86.1145 78.2203 85.5826 78.4741 84.9757C78.7273 84.3687 78.8543 83.7007 78.8543 82.9715C78.8543 82.2424 78.7273 81.5741 78.4741 80.9674C78.2203 80.3604 77.8664 79.8286 77.4117 79.3702C76.9567 78.9149 76.421 78.562 75.8051 78.312C75.1885 78.0632 74.5176 77.9397 73.7919 77.9397C73.0667 77.9397 72.3928 78.0632 71.7708 78.312C71.1489 78.562 70.6108 78.9149 70.1555 79.3702C69.7003 79.8286 69.3436 80.3604 69.0843 80.9674C68.8255 81.5741 68.6958 82.2424 68.6958 82.9715C68.6958 83.6882 68.8255 84.3533 69.0843 84.9673C69.3436 85.5796 69.7003 86.1145 70.1555 86.5712C70.6108 87.0296 71.1489 87.3811 71.7708 87.631C72.3928 87.8798 73.0667 88.0031 73.7919 88.0031ZM73.7919 89.1489C72.8822 89.1489 72.0387 88.9947 71.2612 88.6894C70.4839 88.3822 69.81 87.9491 69.2397 87.3881C68.67 86.8267 68.2264 86.1727 67.9096 85.4268C67.5926 84.6809 67.4347 83.8616 67.4347 82.9715C67.4347 82.0812 67.5926 81.2619 67.9096 80.516C68.2264 79.7701 68.67 79.1161 69.2397 78.555C69.81 77.9939 70.4811 77.5606 71.2526 77.2536C72.024 76.948 72.8708 76.7941 73.7919 76.7941C74.7019 76.7941 75.5426 76.948 76.3146 77.2536C77.0864 77.5606 77.7572 77.9912 78.3272 78.5467C78.8972 79.1025 79.3403 79.7548 79.6576 80.5076C79.9743 81.2591 80.1325 82.0812 80.1325 82.9715C80.1325 83.8616 79.9743 84.684 79.6576 85.4351C79.3403 86.1883 78.8972 86.8406 78.3272 87.3961C77.7572 87.9516 77.0864 88.3822 76.3146 88.6894C75.5426 88.9947 74.7019 89.1489 73.7919 89.1489Z" fill="#5B0055"/>
<path d="M95.1973 88.0031C95.9228 88.0031 96.5939 87.8798 97.2104 87.631C97.8262 87.3811 98.3618 87.0296 98.8168 86.5712C99.2715 86.1145 99.6254 85.5826 99.8792 84.9757C100.132 84.3687 100.259 83.7007 100.259 82.9715C100.259 82.2424 100.132 81.5741 99.8792 80.9674C99.6254 80.3604 99.2715 79.8286 98.8168 79.3702C98.3618 78.9149 97.8262 78.562 97.2104 78.312C96.5939 78.0632 95.9228 77.9397 95.1973 77.9397C94.4719 77.9397 93.7982 78.0632 93.1759 78.312C92.5541 78.562 92.0159 78.9149 91.5609 79.3702C91.1054 79.8286 90.7488 80.3604 90.4897 80.9674C90.2306 81.5741 90.1009 82.2424 90.1009 82.9715C90.1009 83.6882 90.2306 84.3533 90.4897 84.9673C90.7488 85.5796 91.1054 86.1145 91.5609 86.5712C92.0159 87.0296 92.5541 87.3811 93.1759 87.631C93.7982 87.8798 94.4719 88.0031 95.1973 88.0031ZM95.1973 89.1489C94.2873 89.1489 93.4438 88.9947 92.6663 88.6894C91.889 88.3822 91.2151 87.9491 90.6451 87.3881C90.0751 86.8267 89.6315 86.1727 89.3148 85.4268C88.9978 84.6809 88.8401 83.8616 88.8401 82.9715C88.8401 82.0812 88.9978 81.2619 89.3148 80.516C89.6315 79.7701 90.0751 79.1161 90.6451 78.555C91.2151 77.9939 91.8862 77.5606 92.6577 77.2536C93.4294 76.948 94.276 76.7941 95.1973 76.7941C96.107 76.7941 96.9478 76.948 97.72 77.2536C98.4915 77.5606 99.1626 77.9912 99.7323 78.5467C100.303 79.1025 100.745 79.7548 101.063 80.5076C101.379 81.2591 101.538 82.0812 101.538 82.9715C101.538 83.8616 101.379 84.684 101.063 85.4351C100.745 86.1883 100.303 86.8406 99.7323 87.3961C99.1626 87.9516 98.4915 88.3822 97.72 88.6894C96.9478 88.9947 96.107 89.1489 95.1973 89.1489Z" fill="#5B0055"/>
<path d="M120.006 89.0449L114.788 83.0064L115.652 82.0688L121.526 89.0449H120.006ZM112.422 86.0255L112.37 84.4631L119.695 76.898H121.163L115.825 82.5202L115.099 83.3006L112.422 86.0255ZM111.316 76.898H112.594V89.0449H111.316V76.898Z" fill="#5B0055"/>
</g>
</svg>
